<svg width="175" height="175" viewBox="0 0 175 175" fill="none" xmlns="http://www.w3.org/2000/svg">
<g filter="url(#filter0_d_40_317)">
<path d="M10 28C10 16.9543 18.9543 8 30 8H145C156.046 8 165 16.9543 165 28V143C165 154.046 156.046 163 145 163H30C18.9543 163 10 154.046 10 143V28Z" fill="#AE84E6"/>
<path d="M145 8C156.046 8 165 16.9543 165 28V96.2686C150.58 97.5269 139.312 103.172 133.863 112.191C130.433 117.871 129.64 124.485 131.437 131.13C131.505 131.393 131.642 131.632 131.834 131.824C132.026 132.016 132.265 132.153 132.527 132.221C132.79 132.288 133.066 132.284 133.326 132.209C133.586 132.134 133.821 131.989 134.007 131.792L152.583 112.092C153.152 111.522 153.924 111.202 154.729 111.202C155.533 111.203 156.304 111.523 156.873 112.094C157.442 112.664 157.761 113.438 157.761 114.245C157.76 115.052 157.44 115.825 156.871 116.396L137.692 136.719C133.771 140.814 131.289 146.08 130.626 151.719C130.596 152.011 130.569 152.308 130.546 152.604L110.12 131.602C109.575 131.027 109.276 130.261 109.286 129.468C109.296 128.675 109.615 127.917 110.174 127.356C110.733 126.796 111.489 126.476 112.28 126.466C113.071 126.456 113.834 126.756 114.407 127.302L121.687 134.943C121.888 135.156 122.147 135.306 122.432 135.375C122.716 135.444 123.015 135.429 123.291 135.331C123.567 135.233 123.81 135.057 123.988 134.824C124.167 134.592 124.275 134.312 124.299 134.02C124.678 130.24 123.82 126.439 121.854 123.192C116.849 114.909 105.297 110.465 90.9561 111.312C90.2142 111.356 89.5138 111.671 88.9883 112.198C88.4628 112.725 88.1488 113.428 88.1055 114.172C87.245 128.553 91.6917 140.136 99.9521 145.169C102.684 146.835 105.823 147.713 109.021 147.705C111.343 147.687 113.645 147.26 115.821 146.446L130.463 161.128V163H30C18.9543 163 10 154.046 10 143V28C10 16.9543 18.9543 8 30 8H145Z" fill="white"/>
<path d="M165 143C165 154.046 156.046 163 145 163H136.528V154.741C136.518 150.351 137.872 146.067 140.402 142.485C143.686 143.878 147.211 144.608 150.775 144.637C155.03 144.65 159.206 143.485 162.842 141.269C163.585 140.817 164.304 140.325 165 139.796V143Z" fill="white"/>
</g>
<defs>
<filter id="filter0_d_40_317" x="0" y="0" width="175" height="175" filterUnits="userSpaceOnUse" color-interpolation-filters="sRGB">
<feFlood flood-opacity="0" result="BackgroundImageFix"/>
<feColorMatrix in="SourceAlpha" type="matrix" values="0 0 0 0 0 0 0 0 0 0 0 0 0 0 0 0 0 0 127 0" result="hardAlpha"/>
<feOffset dy="2"/>
<feGaussianBlur stdDeviation="5"/>
<feComposite in2="hardAlpha" operator="out"/>
<feColorMatrix type="matrix" values="0 0 0 0 0 0 0 0 0 0 0 0 0 0 0 0 0 0 0.1 0"/>
<feBlend mode="normal" in2="BackgroundImageFix" result="effect1_dropShadow_40_317"/>
<feBlend mode="normal" in="SourceGraphic" in2="effect1_dropShadow_40_317" result="shape"/>
</filter>
</defs>
</svg>
