<svg width="175" height="175" viewBox="0 0 175 175" fill="none" xmlns="http://www.w3.org/2000/svg">
<g filter="url(#filter0_d_40_337)">
<rect x="10" y="8" width="155" height="155" rx="20" fill="#B2E3AB"/>
</g>
<g filter="url(#filter1_d_40_337)">
<path d="M145 8C156.046 8 165 16.9543 165 28V107.482C164.618 105.317 163.552 103.319 161.937 101.796C160.032 100 157.512 98.9999 154.895 99H117.263L116.661 99.0176C114.048 99.1712 111.592 100.317 109.796 102.222C108 104.126 107 106.645 107 109.263V115.25L107.021 115.688C107.129 116.741 107.624 117.717 108.41 118.426C109.196 119.135 110.218 119.527 111.276 119.526H117.263V153.737L117.28 154.339C117.434 156.952 118.581 159.408 120.485 161.204C121.269 161.943 122.158 162.545 123.113 163H30C18.9543 163 10 154.046 10 143V28C10 16.9543 18.9543 8 30 8H145ZM163.619 150.315C162.602 152.903 161.061 155.228 159.127 157.158H133.787C134.163 156.088 134.368 154.935 134.368 153.737V150.315H163.619ZM141.211 129.789L141.61 129.813C142.476 129.916 143.27 130.346 143.83 131.015C144.39 131.683 144.673 132.541 144.622 133.411C144.571 134.281 144.19 135.1 143.556 135.698C142.922 136.297 142.083 136.631 141.211 136.632H134.368L133.968 136.607C133.102 136.504 132.309 136.075 131.749 135.406C131.189 134.738 130.906 133.88 130.957 133.01C131.008 132.139 131.389 131.321 132.023 130.723C132.657 130.124 133.496 129.79 134.368 129.789H141.211ZM148.053 116.105C148.96 116.105 149.83 116.466 150.472 117.107C151.113 117.749 151.474 118.619 151.474 119.526C151.474 120.434 151.113 121.304 150.472 121.945C149.83 122.587 148.96 122.947 148.053 122.947H134.368C133.461 122.947 132.591 122.587 131.949 121.945C131.308 121.304 130.947 120.434 130.947 119.526C130.947 118.619 131.308 117.749 131.949 117.107C132.591 116.466 133.461 116.106 134.368 116.105H148.053ZM117.263 112.685H113.842V109.263C113.842 108.356 114.202 107.485 114.844 106.844C115.485 106.202 116.356 105.842 117.263 105.842V112.685Z" fill="white"/>
</g>
<defs>
<filter id="filter0_d_40_337" x="0" y="0" width="175" height="175" filterUnits="userSpaceOnUse" color-interpolation-filters="sRGB">
<feFlood flood-opacity="0" result="BackgroundImageFix"/>
<feColorMatrix in="SourceAlpha" type="matrix" values="0 0 0 0 0 0 0 0 0 0 0 0 0 0 0 0 0 0 127 0" result="hardAlpha"/>
<feOffset dy="2"/>
<feGaussianBlur stdDeviation="5"/>
<feComposite in2="hardAlpha" operator="out"/>
<feColorMatrix type="matrix" values="0 0 0 0 0 0 0 0 0 0 0 0 0 0 0 0 0 0 0.1 0"/>
<feBlend mode="normal" in2="BackgroundImageFix" result="effect1_dropShadow_40_337"/>
<feBlend mode="normal" in="SourceGraphic" in2="effect1_dropShadow_40_337" result="shape"/>
</filter>
<filter id="filter1_d_40_337" x="0" y="0" width="175" height="175" filterUnits="userSpaceOnUse" color-interpolation-filters="sRGB">
<feFlood flood-opacity="0" result="BackgroundImageFix"/>
<feColorMatrix in="SourceAlpha" type="matrix" values="0 0 0 0 0 0 0 0 0 0 0 0 0 0 0 0 0 0 127 0" result="hardAlpha"/>
<feOffset dy="2"/>
<feGaussianBlur stdDeviation="5"/>
<feComposite in2="hardAlpha" operator="out"/>
<feColorMatrix type="matrix" values="0 0 0 0 0 0 0 0 0 0 0 0 0 0 0 0 0 0 0.1 0"/>
<feBlend mode="normal" in2="BackgroundImageFix" result="effect1_dropShadow_40_337"/>
<feBlend mode="normal" in="SourceGraphic" in2="effect1_dropShadow_40_337" result="shape"/>
</filter>
</defs>
</svg>
